# xmcd
#
# Track frame offsets: 
#        150
#        12201
#        37007
#        52701
#        70090
#        90392
#        104340
#        128794
#        146362
#        166729
#        184102
#        200197
#        216126
#        233426
#        248935
#        261388
#        279418
#        293692
#        308244
#        324380
#
# Disc length: 4681 seconds
#
# Revision: 0
# Processed by: cddbd v1.5.2PL0 Copyright (c) Steve Scherf et al.
# Submitted via: ExactAudioCopy v1.0b3
#
DISCID=17124714
DTITLE=Camilo Sesto - 70 [CD 2)
DYEAR=2017
DGENRE=Pop
TTITLE0=Miénteme...
TTITLE1=El Amor De Mi Vida
TTITLE2=Vivir Así Es Morir De Amor
TTITLE3=La Culpa Ha Sido Mía
TTITLE4=Has Nacido Libre
TTITLE5=¿Quién Será?
TTITLE6=Callados (Camilo Sesto y Ángela Carrasco)
TTITLE7=Perdóname
TTITLE8=Donde Estés, Con Quien Estés
TTITLE9=Vivir Sin Ti
TTITLE10=Amor No Me Ignores
TTITLE11=Tarde O Temprano
TTITLE12=Qué Más Te Da
TTITLE13=Mi Mundo, Tú
TTITLE14=Devuélveme Mi Libertad
TTITLE15=Terciopelo y Piedra
TTITLE16=Amor De Mujer
TTITLE17=Ven O Voy
TTITLE18=Me Lo Estás Poniendo Difícil
TTITLE19=Amor Mío ¿Qué Me Has Hecho?
EXTD=
EXTT0=
EXTT1=
EXTT2=
EXTT3=
EXTT4=
EXTT5=
EXTT6=
EXTT7=
EXTT8=
EXTT9=
EXTT10=
EXTT11=
EXTT12=
EXTT13=
EXTT14=
EXTT15=
EXTT16=
EXTT17=
EXTT18=
EXTT19=
PLAYORDER=
